# xmcd CD database file
#
# Track frame offsets:
#	150
#	21753
#	40370
#	54259
#	58987
#	67979
#	100097
#	107185
#	148119
#	189969
#
# Disc length: 2720 seconds
#
# Revision: 0
# Processed by: cddbd v1.5.1PL0 Copyright (c) Steve Scherf et al.
# Submitted via: CDex 1.50Beta3
#
DISCID=890a9e0a
DTITLE=Stev Douglas - Music Of Cheops
DYEAR=1976
DGENRE=New Age
TTITLE0=Pharoah's Power
TTITLE1=Impressions From The IVth Dynasty part1 Pyramid Power
TTITLE2=Impressions From The IVth Dynasty part2 Nubian Lament
TTITLE3=Impressions From The IVth Dynasty part3 Flight Of Horus
TTITLE4=Impressions From The IVth Dynasty part4 Reflections Along The Nile
TTITLE5=Impressions From The IVth Dynasty part5 Procession
TTITLE6=Time Capsule
TTITLE7=Meditations At Luxor
TTITLE8=Journey From Atlantis
TTITLE9=Ascent
EXTD=YEAR: 1976
EXTT0=
EXTT1=
EXTT2=
EXTT3=
EXTT4=
EXTT5=
EXTT6=
EXTT7=
EXTT8=
EXTT9=
PLAYORDER=
